<svg width="23" height="19" fill="none" xmlns="http://www.w3.org/2000/svg"><path d="M22.028 2.18a9.134 9.134 0 01-2.237.639c.361-.061.889-.712 1.1-.975.331-.4.584-.86.743-1.354.019-.04.033-.087-.006-.117a.125.125 0 00-.118.01c-.838.447-1.73.788-2.652 1.015a.177.177 0 01-.183-.05 2.22 2.22 0 00-.232-.236 4.7 4.7 0 00-1.286-.786 4.45 4.45 0 00-1.97-.318 4.716 4.716 0 00-1.87.527 4.833 4.833 0 00-1.508 1.232 4.64 4.64 0 00-.9 1.8 4.916 4.916 0 00-.047 1.9c.014.107.006.12-.092.107A14.164 14.164 0 011.657.934c-.107-.121-.164-.121-.251.01a4.621 4.621 0 00.788 5.46c.178.17.362.339.559.493a4.634 4.634 0 01-1.757-.492c-.107-.068-.161-.03-.169.092-.008.174.002.35.028.522a4.674 4.674 0 002.882 3.736c.187.082.383.142.584.179a5.198 5.198 0 01-1.724.053c-.126-.024-.175.039-.126.16a4.848 4.848 0 003.622 3.034c.164.029.327.029.492.068-.01.014-.019.014-.029.029a5.73 5.73 0 01-2.474 1.31 8.857 8.857 0 01-3.759.482c-.2-.03-.244-.028-.3 0-.056.028-.007.083.058.135.257.169.517.319.782.465a12.57 12.57 0 002.513 1.006 13.382 13.382 0 0012.991-3.04c2.663-2.644 3.6-6.292 3.6-9.944 0-.143.169-.222.27-.3a8.82 8.82 0 001.767-1.84.56.56 0 00.118-.351v-.02c-.003-.056-.004-.038-.094 0z" fill="#fff"/></svg>